<svg width="341" height="79" viewBox="0 0 341 79" fill="none" xmlns="http://www.w3.org/2000/svg">
<path d="M5.12 62V18.288C7.296 17.8613 9.6 17.5627 12.032 17.392C14.464 17.2213 16.5973 17.136 18.432 17.136C25.0453 17.136 30.1227 18.3093 33.664 20.656C37.2053 22.96 38.976 26.7573 38.976 32.048C38.976 35.5893 38.1653 38.4907 36.544 40.752C34.9653 42.9707 32.6187 44.592 29.504 45.616C26.432 46.64 22.6773 47.152 18.24 47.152H15.104V62H5.12ZM15.104 38.64H18.24C20.544 38.64 22.464 38.448 24 38.064C25.5787 37.6373 26.752 36.9547 27.52 36.016C28.288 35.0347 28.672 33.6907 28.672 31.984C28.672 30.32 28.2667 29.04 27.456 28.144C26.688 27.2053 25.5787 26.5653 24.128 26.224C22.72 25.84 21.0347 25.648 19.072 25.648C18.3467 25.648 17.6213 25.6693 16.896 25.712C16.2133 25.7547 15.616 25.7973 15.104 25.84V38.64ZM39.9075 62V18.288C42.0835 17.8613 44.3235 17.5627 46.6275 17.392C48.9742 17.2213 51.0648 17.136 52.8995 17.136C59.5555 17.136 64.6542 18.3307 68.1955 20.72C71.7368 23.0667 73.5075 26.736 73.5075 31.728C73.5075 34.8427 72.7822 37.3813 71.3315 39.344C69.9235 41.264 67.8755 42.7787 65.1875 43.888C66.0835 44.9973 67.0222 46.256 68.0035 47.664C68.9848 49.072 69.9448 50.5867 70.8835 52.208C71.8648 53.7867 72.8035 55.408 73.6995 57.072C74.5955 58.736 75.4275 60.3787 76.1955 62H64.9955C63.9288 60.0373 62.8195 58.0747 61.6675 56.112C60.5155 54.1493 59.3635 52.272 58.2115 50.48C57.1022 48.688 55.9715 47.1307 54.8195 45.808H49.8915V62H39.9075ZM49.8915 37.872H52.7075C55.2248 37.872 57.2515 37.68 58.7875 37.296C60.3235 36.8693 61.4328 36.208 62.1155 35.312C62.8408 34.3733 63.2035 33.1573 63.2035 31.664C63.2035 30.2133 62.8408 29.0613 62.1155 28.208C61.3902 27.312 60.3022 26.672 58.8515 26.288C57.4008 25.8613 55.6088 25.648 53.4755 25.648C52.7502 25.648 52.0888 25.6693 51.4915 25.712C50.9368 25.7547 50.4035 25.7973 49.8915 25.84V37.872ZM95.23 62.896C91.1767 62.896 87.4647 62.0213 84.094 60.272C80.766 58.5227 78.0993 55.9413 76.094 52.528C74.1313 49.072 73.15 44.8267 73.15 39.792C73.15 35.9947 73.726 32.6667 74.878 29.808C76.0727 26.9067 77.694 24.4747 79.742 22.512C81.8327 20.5493 84.2007 19.0773 86.846 18.096C89.4913 17.1147 92.286 16.624 95.23 16.624C99.2833 16.624 102.974 17.4987 106.302 19.248C109.673 20.9973 112.339 23.6 114.302 27.056C116.307 30.4693 117.31 34.7147 117.31 39.792C117.31 44.8267 116.329 49.072 114.366 52.528C112.446 55.9413 109.822 58.5227 106.494 60.272C103.166 62.0213 99.4113 62.896 95.23 62.896ZM95.23 54.128C97.7047 54.128 99.8167 53.5307 101.566 52.336C103.315 51.1413 104.659 49.4773 105.598 47.344C106.537 45.168 107.006 42.6507 107.006 39.792C107.006 36.8907 106.537 34.3733 105.598 32.24C104.659 30.064 103.315 28.3787 101.566 27.184C99.8167 25.9893 97.7047 25.392 95.23 25.392C92.7553 25.392 90.6433 26.0107 88.894 27.248C87.1447 28.4427 85.8007 30.128 84.862 32.304C83.9233 34.4373 83.454 36.9333 83.454 39.792C83.454 42.6507 83.9233 45.168 84.862 47.344C85.8007 49.4773 87.1447 51.1413 88.894 52.336C90.6433 53.5307 92.7553 54.128 95.23 54.128ZM125.987 62.896C123.086 62.896 120.59 62.5547 118.499 61.872C116.408 61.1467 114.68 60.3147 113.315 59.376L116.643 51.632C117.88 52.3573 119.203 52.9973 120.611 53.552C122.019 54.1067 123.555 54.384 125.219 54.384C127.651 54.384 129.4 53.7867 130.467 52.592C131.534 51.3973 132.067 49.392 132.067 46.576V17.648H142.051V47.088C142.051 49.9893 141.582 52.6347 140.643 55.024C139.747 57.4133 138.126 59.3333 135.779 60.784C133.475 62.192 130.211 62.896 125.987 62.896ZM145.27 62V17.648H175.222V26.032H155.254V34.736H172.982V42.928H155.254V53.616H176.694V62H145.27ZM187.219 62V26.16H173.843V17.648H210.579V26.16H197.203V62H187.219ZM200.865 62C203.084 55.6427 205.153 49.8827 207.073 44.72C209.036 39.5573 210.934 34.7787 212.769 30.384C214.646 25.9893 216.566 21.744 218.529 17.648H228.065C229.516 20.72 230.945 23.8773 232.353 27.12C233.761 30.3627 235.169 33.776 236.577 37.36C237.985 40.9013 239.436 44.6987 240.929 48.752C242.465 52.8053 244.065 57.2213 245.729 62H235.041C234.572 60.464 234.038 58.8853 233.441 57.264C232.886 55.6427 232.332 54.0213 231.777 52.4H214.497C213.942 54.0213 213.366 55.6427 212.769 57.264C212.214 58.8853 211.702 60.464 211.233 62H200.865ZM216.801 44.464H229.409C228.726 42.544 228.065 40.7093 227.425 38.96C226.785 37.2107 226.166 35.6107 225.569 34.16C225.014 32.7093 224.524 31.4293 224.097 30.32C223.67 29.2107 223.329 28.336 223.073 27.696C222.86 28.336 222.54 29.2107 222.113 30.32C221.729 31.4293 221.238 32.7093 220.641 34.16C220.086 35.6107 219.468 37.2107 218.785 38.96C218.145 40.7093 217.484 42.544 216.801 44.464ZM220.705 14.96L216.353 11.056L225.441 0.687996L231.265 6.064L220.705 14.96ZM245.07 62V18.288C247.246 17.8613 249.486 17.5627 251.79 17.392C254.137 17.2213 256.227 17.136 258.062 17.136C264.718 17.136 269.817 18.3307 273.358 20.72C276.899 23.0667 278.67 26.736 278.67 31.728C278.67 34.8427 277.945 37.3813 276.494 39.344C275.086 41.264 273.038 42.7787 270.35 43.888C271.246 44.9973 272.185 46.256 273.166 47.664C274.147 49.072 275.107 50.5867 276.046 52.208C277.027 53.7867 277.966 55.408 278.862 57.072C279.758 58.736 280.59 60.3787 281.358 62H270.158C269.091 60.0373 267.982 58.0747 266.83 56.112C265.678 54.1493 264.526 52.272 263.374 50.48C262.265 48.688 261.134 47.1307 259.982 45.808H255.054V62H245.07ZM255.054 37.872H257.87C260.387 37.872 262.414 37.68 263.95 37.296C265.486 36.8693 266.595 36.208 267.278 35.312C268.003 34.3733 268.366 33.1573 268.366 31.664C268.366 30.2133 268.003 29.0613 267.278 28.208C266.553 27.312 265.465 26.672 264.014 26.288C262.563 25.8613 260.771 25.648 258.638 25.648C257.913 25.648 257.251 25.6693 256.654 25.712C256.099 25.7547 255.566 25.7973 255.054 25.84V37.872ZM281.357 62V17.648H291.341V62H281.357ZM315.367 62.896C311.314 62.896 307.602 62.0213 304.231 60.272C300.903 58.5227 298.237 55.9413 296.231 52.528C294.269 49.072 293.287 44.8267 293.287 39.792C293.287 35.9947 293.863 32.6667 295.015 29.808C296.21 26.9067 297.831 24.4747 299.879 22.512C301.97 20.5493 304.338 19.0773 306.983 18.096C309.629 17.1147 312.423 16.624 315.367 16.624C319.421 16.624 323.111 17.4987 326.439 19.248C329.81 20.9973 332.477 23.6 334.439 27.056C336.445 30.4693 337.447 34.7147 337.447 39.792C337.447 44.8267 336.466 49.072 334.503 52.528C332.583 55.9413 329.959 58.5227 326.631 60.272C323.303 62.0213 319.549 62.896 315.367 62.896ZM315.367 54.128C317.842 54.128 319.954 53.5307 321.703 52.336C323.453 51.1413 324.797 49.4773 325.735 47.344C326.674 45.168 327.143 42.6507 327.143 39.792C327.143 36.8907 326.674 34.3733 325.735 32.24C324.797 30.064 323.453 28.3787 321.703 27.184C319.954 25.9893 317.842 25.392 315.367 25.392C312.893 25.392 310.781 26.0107 309.031 27.248C307.282 28.4427 305.938 30.128 304.999 32.304C304.061 34.4373 303.591 36.9333 303.591 39.792C303.591 42.6507 304.061 45.168 304.999 47.344C305.938 49.4773 307.282 51.1413 309.031 52.336C310.781 53.5307 312.893 54.128 315.367 54.128Z" fill="url(#paint0_linear_139_1551)"/>
<defs>
<linearGradient id="paint0_linear_139_1551" x1="76.0627" y1="65.473" x2="251.859" y2="21.4346" gradientUnits="userSpaceOnUse">
<stop stop-color="#E2910E"/>
<stop offset="1" stop-color="#FFCC00"/>
</linearGradient>
</defs>
</svg>
